<svg t="1629106366287" class="icon" viewBox="0 0 1024 1024" version="1.1" xmlns="http://www.w3.org/2000/svg" p-id="1903" width="200" height="200"><path d="M697.6 640H531.2v-32H768c32-12.8 64-19.2 102.4-19.2s76.8 6.4 108.8 19.2V204.8c0-12.8-6.4-25.6-12.8-38.4-12.8-12.8-25.6-12.8-38.4-12.8H64c-12.8 0-25.6 6.4-38.4 12.8-6.4 12.8-12.8 25.6-12.8 38.4v595.2c0 12.8 6.4 25.6 12.8 38.4s25.6 12.8 38.4 12.8h486.4c19.2-83.2 76.8-160 147.2-211.2z m-448-358.4c51.2 0 83.2 38.4 83.2 89.6s-32 83.2-83.2 83.2-83.2-38.4-83.2-83.2c0-51.2 38.4-89.6 83.2-89.6z m-192 409.6c6.4-89.6 89.6-160 192-160s185.6 70.4 192 160h-384z m384-384h467.2v32H441.6v-32zM512 467.2h396.8v32H512v-32z" fill="#ffffff" p-id="1904"></path><path d="M998.4 889.6c-12.8-6.4-19.2-12.8-25.6-19.2-6.4-6.4-6.4-12.8-6.4-25.6 0-6.4 0-19.2 6.4-25.6 6.4-6.4 12.8-12.8 19.2-12.8 0 0 6.4 0 6.4-6.4v-12.8c0-6.4 0-12.8-6.4-25.6 0-6.4-6.4-12.8-12.8-19.2l-6.4-6.4h-6.4c-6.4 6.4-19.2 6.4-25.6 6.4-6.4 0-19.2-6.4-25.6-12.8-6.4-6.4-12.8-12.8-12.8-25.6 0-6.4 0-19.2 6.4-25.6v-12.8c0-6.4-6.4-6.4-6.4-12.8-6.4 0-6.4-6.4-12.8-6.4s-6.4-6.4-12.8-6.4h-12.8s-6.4 0-6.4 6.4l-6.4 6.4c0 6.4-6.4 12.8-12.8 19.2s-12.8 6.4-25.6 6.4c-6.4 0-19.2 0-25.6-6.4 0 19.2-6.4 12.8-6.4 0 0 0 0-6.4-6.4-6.4l-6.4-6.4h-12.8c-6.4 0-6.4 0-12.8 6.4-6.4 0-6.4 6.4-12.8 6.4s-6.4 6.4-6.4 12.8v44.8c0 6.4-6.4 6.4-6.4 12.8-6.4 6.4-12.8 12.8-25.6 12.8h-38.4l-6.4 6.4c0 6.4-6.4 6.4-6.4 12.8s0 6.4-6.4 12.8V806.4l6.4 6.4c6.4 6.4 12.8 6.4 19.2 12.8 6.4 6.4 12.8 12.8 12.8 25.6 0 6.4 0 19.2-12.8 25.6-12.8 6.4-12.8 12.8-19.2 12.8s-6.4 6.4-6.4 12.8v12.8c0 6.4 0 12.8 6.4 12.8 0 6.4 6.4 6.4 6.4 12.8s6.4 6.4 6.4 6.4h12.8c6.4 0 12.8 0 19.2-6.4h12.8c6.4 0 12.8 6.4 12.8 6.4 6.4 6.4 6.4 12.8 12.8 19.2 0 6.4 0 12.8-6.4 19.2V1004.8l6.4 6.4c6.4 0 6.4 6.4 12.8 6.4s6.4 6.4 12.8 6.4H768l6.4-6.4c0-6.4 6.4-12.8 12.8-19.2s12.8-6.4 25.6-6.4c6.4 0 19.2 0 25.6 6.4s12.8 12.8 12.8 19.2c0 0 0 6.4 6.4 6.4H876.8c6.4 0 6.4 0 12.8-6.4 6.4 0 6.4-6.4 12.8-6.4s6.4-6.4 6.4-6.4c6.4-6.4 6.4-12.8 0-19.2v-6.4c0-6.4 6.4-19.2 12.8-25.6 0-6.4 6.4-6.4 12.8-6.4h51.2l6.4-6.4c0-6.4 6.4-6.4 6.4-12.8s6.4-6.4 6.4-12.8v-12.8c6.4-6.4-6.4-6.4-6.4-12.8z m-102.4-6.4c-6.4 12.8-12.8 19.2-19.2 25.6-6.4 6.4-19.2 12.8-25.6 19.2-12.8 6.4-19.2 6.4-32 6.4s-25.6 0-32-6.4c-12.8-6.4-19.2-12.8-25.6-19.2-6.4-6.4-12.8-19.2-19.2-25.6-6.4-12.8-6.4-19.2-6.4-32s0-25.6 6.4-32c6.4-12.8 12.8-19.2 19.2-25.6 6.4-6.4 19.2-12.8 25.6-19.2 12.8-6.4 19.2-6.4 32-6.4s25.6 0 32 6.4c12.8 6.4 19.2 12.8 25.6 19.2s12.8 19.2 19.2 25.6c6.4 12.8 6.4 19.2 6.4 32s0 25.6-6.4 32z" fill="#ffffff" p-id="1905"></path></svg>